<mxfile host="localhost" agent="Mozilla/5.0 (X11; Linux x86_64) AppleWebKit/537.36 (KHTML, like Gecko) Chrome/130.0.0.0 Safari/537.36" version="24.7.5">
  <diagram name="Page-1" id="dIekKHVds9zKnYUkIWTu">
    <mxGraphModel dx="1157" dy="639" grid="1" gridSize="10" guides="1" tooltips="1" connect="1" arrows="1" fold="1" page="1" pageScale="1" pageWidth="850" pageHeight="1100" math="0" shadow="0">
      <root>
        <mxCell id="0" />
        <mxCell id="1" parent="0" />
        <mxCell id="50C5CEQJ_TCJM8Q_TnX2-4" value="" style="group" parent="1" vertex="1" connectable="0">
          <mxGeometry x="300" y="10" width="250" height="370" as="geometry" />
        </mxCell>
        <mxCell id="ACOnsqsMACrQwas12GLK-21" value="VPC" style="sketch=0;outlineConnect=0;gradientColor=none;html=1;whiteSpace=wrap;fontSize=12;fontStyle=0;shape=mxgraph.aws4.group;grIcon=mxgraph.aws4.group_vpc;strokeColor=#879196;fillColor=none;verticalAlign=top;align=left;spacingLeft=30;fontColor=#879196;dashed=0;container=0;" parent="50C5CEQJ_TCJM8Q_TnX2-4" vertex="1">
          <mxGeometry x="7.349999999999999" y="30" width="235.29" height="330" as="geometry" />
        </mxCell>
        <mxCell id="ACOnsqsMACrQwas12GLK-19" value="Region In North America (Primary)" style="points=[[0,0],[0.25,0],[0.5,0],[0.75,0],[1,0],[1,0.25],[1,0.5],[1,0.75],[1,1],[0.75,1],[0.5,1],[0.25,1],[0,1],[0,0.75],[0,0.5],[0,0.25]];outlineConnect=0;gradientColor=none;html=1;whiteSpace=wrap;fontSize=12;fontStyle=0;container=0;pointerEvents=0;collapsible=0;recursiveResize=0;shape=mxgraph.aws4.group;grIcon=mxgraph.aws4.group_region;strokeColor=#00A4A6;fillColor=none;verticalAlign=top;align=left;spacingLeft=30;fontColor=#147EBA;dashed=1;" parent="50C5CEQJ_TCJM8Q_TnX2-4" vertex="1">
          <mxGeometry width="250" height="369.99999999999994" as="geometry" />
        </mxCell>
        <mxCell id="ACOnsqsMACrQwas12GLK-20" value="Private subnet" style="points=[[0,0],[0.25,0],[0.5,0],[0.75,0],[1,0],[1,0.25],[1,0.5],[1,0.75],[1,1],[0.75,1],[0.5,1],[0.25,1],[0,1],[0,0.75],[0,0.5],[0,0.25]];outlineConnect=0;gradientColor=none;html=1;whiteSpace=wrap;fontSize=12;fontStyle=0;container=0;pointerEvents=0;collapsible=0;recursiveResize=0;shape=mxgraph.aws4.group;grIcon=mxgraph.aws4.group_security_group;grStroke=0;strokeColor=#00A4A6;fillColor=#E6F6F7;verticalAlign=top;align=left;spacingLeft=30;fontColor=#147EBA;dashed=0;" parent="50C5CEQJ_TCJM8Q_TnX2-4" vertex="1">
          <mxGeometry x="14.995882352941159" y="219.99999999999997" width="220" height="130" as="geometry" />
        </mxCell>
        <mxCell id="50C5CEQJ_TCJM8Q_TnX2-5" value="Public subnet" style="points=[[0,0],[0.25,0],[0.5,0],[0.75,0],[1,0],[1,0.25],[1,0.5],[1,0.75],[1,1],[0.75,1],[0.5,1],[0.25,1],[0,1],[0,0.75],[0,0.5],[0,0.25]];outlineConnect=0;gradientColor=none;html=1;whiteSpace=wrap;fontSize=12;fontStyle=0;container=1;pointerEvents=0;collapsible=0;recursiveResize=0;shape=mxgraph.aws4.group;grIcon=mxgraph.aws4.group_security_group;grStroke=0;strokeColor=#7AA116;fillColor=#F2F6E8;verticalAlign=top;align=left;spacingLeft=30;fontColor=#248814;dashed=0;" parent="50C5CEQJ_TCJM8Q_TnX2-4" vertex="1">
          <mxGeometry x="14.990000000000002" y="70" width="220" height="130" as="geometry" />
        </mxCell>
        <mxCell id="50C5CEQJ_TCJM8Q_TnX2-6" value="EC2 Instance" style="sketch=0;points=[[0,0,0],[0.25,0,0],[0.5,0,0],[0.75,0,0],[1,0,0],[0,1,0],[0.25,1,0],[0.5,1,0],[0.75,1,0],[1,1,0],[0,0.25,0],[0,0.5,0],[0,0.75,0],[1,0.25,0],[1,0.5,0],[1,0.75,0]];outlineConnect=0;fontColor=#232F3E;fillColor=#ED7100;strokeColor=#ffffff;dashed=0;verticalLabelPosition=bottom;verticalAlign=top;align=center;html=1;fontSize=12;fontStyle=0;aspect=fixed;shape=mxgraph.aws4.resourceIcon;resIcon=mxgraph.aws4.ec2;" parent="50C5CEQJ_TCJM8Q_TnX2-4" vertex="1">
          <mxGeometry x="87.99" y="98" width="74" height="74" as="geometry" />
        </mxCell>
        <mxCell id="tmspmf9Bj1s4dJlB-khX-1" value="Aurora Instance&lt;br&gt;(Writer)" style="sketch=0;outlineConnect=0;fontColor=#232F3E;gradientColor=none;fillColor=#C925D1;strokeColor=none;dashed=0;verticalLabelPosition=bottom;verticalAlign=top;align=center;html=1;fontSize=12;fontStyle=0;aspect=fixed;pointerEvents=1;shape=mxgraph.aws4.aurora_instance;" vertex="1" parent="50C5CEQJ_TCJM8Q_TnX2-4">
          <mxGeometry x="93" y="250" width="63.99" height="63.99" as="geometry" />
        </mxCell>
        <mxCell id="tmspmf9Bj1s4dJlB-khX-2" value="" style="group" vertex="1" connectable="0" parent="1">
          <mxGeometry x="20" y="260" width="250" height="370" as="geometry" />
        </mxCell>
        <mxCell id="tmspmf9Bj1s4dJlB-khX-3" value="VPC" style="sketch=0;outlineConnect=0;gradientColor=none;html=1;whiteSpace=wrap;fontSize=12;fontStyle=0;shape=mxgraph.aws4.group;grIcon=mxgraph.aws4.group_vpc;strokeColor=#879196;fillColor=none;verticalAlign=top;align=left;spacingLeft=30;fontColor=#879196;dashed=0;container=0;" vertex="1" parent="tmspmf9Bj1s4dJlB-khX-2">
          <mxGeometry x="7.349999999999999" y="30" width="235.29" height="330" as="geometry" />
        </mxCell>
        <mxCell id="tmspmf9Bj1s4dJlB-khX-4" value="Region In South America (Secondary)" style="points=[[0,0],[0.25,0],[0.5,0],[0.75,0],[1,0],[1,0.25],[1,0.5],[1,0.75],[1,1],[0.75,1],[0.5,1],[0.25,1],[0,1],[0,0.75],[0,0.5],[0,0.25]];outlineConnect=0;gradientColor=none;html=1;whiteSpace=wrap;fontSize=12;fontStyle=0;container=0;pointerEvents=0;collapsible=0;recursiveResize=0;shape=mxgraph.aws4.group;grIcon=mxgraph.aws4.group_region;strokeColor=#00A4A6;fillColor=none;verticalAlign=top;align=left;spacingLeft=30;fontColor=#147EBA;dashed=1;" vertex="1" parent="tmspmf9Bj1s4dJlB-khX-2">
          <mxGeometry width="250" height="369.99999999999994" as="geometry" />
        </mxCell>
        <mxCell id="tmspmf9Bj1s4dJlB-khX-5" value="Private subnet" style="points=[[0,0],[0.25,0],[0.5,0],[0.75,0],[1,0],[1,0.25],[1,0.5],[1,0.75],[1,1],[0.75,1],[0.5,1],[0.25,1],[0,1],[0,0.75],[0,0.5],[0,0.25]];outlineConnect=0;gradientColor=none;html=1;whiteSpace=wrap;fontSize=12;fontStyle=0;container=0;pointerEvents=0;collapsible=0;recursiveResize=0;shape=mxgraph.aws4.group;grIcon=mxgraph.aws4.group_security_group;grStroke=0;strokeColor=#00A4A6;fillColor=#E6F6F7;verticalAlign=top;align=left;spacingLeft=30;fontColor=#147EBA;dashed=0;" vertex="1" parent="tmspmf9Bj1s4dJlB-khX-2">
          <mxGeometry x="14.995882352941159" y="219.99999999999997" width="220" height="130" as="geometry" />
        </mxCell>
        <mxCell id="tmspmf9Bj1s4dJlB-khX-6" value="Public subnet" style="points=[[0,0],[0.25,0],[0.5,0],[0.75,0],[1,0],[1,0.25],[1,0.5],[1,0.75],[1,1],[0.75,1],[0.5,1],[0.25,1],[0,1],[0,0.75],[0,0.5],[0,0.25]];outlineConnect=0;gradientColor=none;html=1;whiteSpace=wrap;fontSize=12;fontStyle=0;container=1;pointerEvents=0;collapsible=0;recursiveResize=0;shape=mxgraph.aws4.group;grIcon=mxgraph.aws4.group_security_group;grStroke=0;strokeColor=#7AA116;fillColor=#F2F6E8;verticalAlign=top;align=left;spacingLeft=30;fontColor=#248814;dashed=0;" vertex="1" parent="tmspmf9Bj1s4dJlB-khX-2">
          <mxGeometry x="14.990000000000002" y="70" width="220" height="130" as="geometry" />
        </mxCell>
        <mxCell id="tmspmf9Bj1s4dJlB-khX-7" value="EC2 Instance" style="sketch=0;points=[[0,0,0],[0.25,0,0],[0.5,0,0],[0.75,0,0],[1,0,0],[0,1,0],[0.25,1,0],[0.5,1,0],[0.75,1,0],[1,1,0],[0,0.25,0],[0,0.5,0],[0,0.75,0],[1,0.25,0],[1,0.5,0],[1,0.75,0]];outlineConnect=0;fontColor=#232F3E;fillColor=#ED7100;strokeColor=#ffffff;dashed=0;verticalLabelPosition=bottom;verticalAlign=top;align=center;html=1;fontSize=12;fontStyle=0;aspect=fixed;shape=mxgraph.aws4.resourceIcon;resIcon=mxgraph.aws4.ec2;" vertex="1" parent="tmspmf9Bj1s4dJlB-khX-2">
          <mxGeometry x="87.99" y="98" width="74" height="74" as="geometry" />
        </mxCell>
        <mxCell id="tmspmf9Bj1s4dJlB-khX-8" value="Aurora Instance&lt;br&gt;(Reader)" style="sketch=0;outlineConnect=0;fontColor=#232F3E;gradientColor=none;fillColor=#C925D1;strokeColor=none;dashed=0;verticalLabelPosition=bottom;verticalAlign=top;align=center;html=1;fontSize=12;fontStyle=0;aspect=fixed;pointerEvents=1;shape=mxgraph.aws4.aurora_instance;" vertex="1" parent="tmspmf9Bj1s4dJlB-khX-2">
          <mxGeometry x="92.99" y="249" width="63.99" height="63.99" as="geometry" />
        </mxCell>
        <mxCell id="tmspmf9Bj1s4dJlB-khX-9" value="" style="group" vertex="1" connectable="0" parent="1">
          <mxGeometry x="580" y="260" width="250" height="370" as="geometry" />
        </mxCell>
        <mxCell id="tmspmf9Bj1s4dJlB-khX-10" value="VPC" style="sketch=0;outlineConnect=0;gradientColor=none;html=1;whiteSpace=wrap;fontSize=12;fontStyle=0;shape=mxgraph.aws4.group;grIcon=mxgraph.aws4.group_vpc;strokeColor=#879196;fillColor=none;verticalAlign=top;align=left;spacingLeft=30;fontColor=#879196;dashed=0;container=0;" vertex="1" parent="tmspmf9Bj1s4dJlB-khX-9">
          <mxGeometry x="7.349999999999999" y="30" width="235.29" height="330" as="geometry" />
        </mxCell>
        <mxCell id="tmspmf9Bj1s4dJlB-khX-11" value="Region In Europe (Secondary)" style="points=[[0,0],[0.25,0],[0.5,0],[0.75,0],[1,0],[1,0.25],[1,0.5],[1,0.75],[1,1],[0.75,1],[0.5,1],[0.25,1],[0,1],[0,0.75],[0,0.5],[0,0.25]];outlineConnect=0;gradientColor=none;html=1;whiteSpace=wrap;fontSize=12;fontStyle=0;container=0;pointerEvents=0;collapsible=0;recursiveResize=0;shape=mxgraph.aws4.group;grIcon=mxgraph.aws4.group_region;strokeColor=#00A4A6;fillColor=none;verticalAlign=top;align=left;spacingLeft=30;fontColor=#147EBA;dashed=1;" vertex="1" parent="tmspmf9Bj1s4dJlB-khX-9">
          <mxGeometry width="250" height="369.99999999999994" as="geometry" />
        </mxCell>
        <mxCell id="tmspmf9Bj1s4dJlB-khX-12" value="Private subnet" style="points=[[0,0],[0.25,0],[0.5,0],[0.75,0],[1,0],[1,0.25],[1,0.5],[1,0.75],[1,1],[0.75,1],[0.5,1],[0.25,1],[0,1],[0,0.75],[0,0.5],[0,0.25]];outlineConnect=0;gradientColor=none;html=1;whiteSpace=wrap;fontSize=12;fontStyle=0;container=0;pointerEvents=0;collapsible=0;recursiveResize=0;shape=mxgraph.aws4.group;grIcon=mxgraph.aws4.group_security_group;grStroke=0;strokeColor=#00A4A6;fillColor=#E6F6F7;verticalAlign=top;align=left;spacingLeft=30;fontColor=#147EBA;dashed=0;" vertex="1" parent="tmspmf9Bj1s4dJlB-khX-9">
          <mxGeometry x="14.995882352941159" y="219.99999999999997" width="220" height="130" as="geometry" />
        </mxCell>
        <mxCell id="tmspmf9Bj1s4dJlB-khX-13" value="Public subnet" style="points=[[0,0],[0.25,0],[0.5,0],[0.75,0],[1,0],[1,0.25],[1,0.5],[1,0.75],[1,1],[0.75,1],[0.5,1],[0.25,1],[0,1],[0,0.75],[0,0.5],[0,0.25]];outlineConnect=0;gradientColor=none;html=1;whiteSpace=wrap;fontSize=12;fontStyle=0;container=1;pointerEvents=0;collapsible=0;recursiveResize=0;shape=mxgraph.aws4.group;grIcon=mxgraph.aws4.group_security_group;grStroke=0;strokeColor=#7AA116;fillColor=#F2F6E8;verticalAlign=top;align=left;spacingLeft=30;fontColor=#248814;dashed=0;" vertex="1" parent="tmspmf9Bj1s4dJlB-khX-9">
          <mxGeometry x="14.990000000000002" y="70" width="220" height="130" as="geometry" />
        </mxCell>
        <mxCell id="tmspmf9Bj1s4dJlB-khX-14" value="EC2 Instance" style="sketch=0;points=[[0,0,0],[0.25,0,0],[0.5,0,0],[0.75,0,0],[1,0,0],[0,1,0],[0.25,1,0],[0.5,1,0],[0.75,1,0],[1,1,0],[0,0.25,0],[0,0.5,0],[0,0.75,0],[1,0.25,0],[1,0.5,0],[1,0.75,0]];outlineConnect=0;fontColor=#232F3E;fillColor=#ED7100;strokeColor=#ffffff;dashed=0;verticalLabelPosition=bottom;verticalAlign=top;align=center;html=1;fontSize=12;fontStyle=0;aspect=fixed;shape=mxgraph.aws4.resourceIcon;resIcon=mxgraph.aws4.ec2;" vertex="1" parent="tmspmf9Bj1s4dJlB-khX-9">
          <mxGeometry x="87.99" y="98" width="74" height="74" as="geometry" />
        </mxCell>
        <mxCell id="tmspmf9Bj1s4dJlB-khX-15" value="Aurora Instance&lt;br&gt;(Reader)" style="sketch=0;outlineConnect=0;fontColor=#232F3E;gradientColor=none;fillColor=#C925D1;strokeColor=none;dashed=0;verticalLabelPosition=bottom;verticalAlign=top;align=center;html=1;fontSize=12;fontStyle=0;aspect=fixed;pointerEvents=1;shape=mxgraph.aws4.aurora_instance;" vertex="1" parent="tmspmf9Bj1s4dJlB-khX-9">
          <mxGeometry x="93" y="249" width="63.99" height="63.99" as="geometry" />
        </mxCell>
        <mxCell id="tmspmf9Bj1s4dJlB-khX-16" value="Replication and&lt;br&gt;Write Forwarding" style="edgeStyle=orthogonalEdgeStyle;rounded=0;orthogonalLoop=1;jettySize=auto;html=1;startArrow=classic;startFill=1;" edge="1" parent="1" source="tmspmf9Bj1s4dJlB-khX-8" target="tmspmf9Bj1s4dJlB-khX-1">
          <mxGeometry relative="1" as="geometry">
            <Array as="points">
              <mxPoint x="145" y="470" />
              <mxPoint x="350" y="470" />
              <mxPoint x="350" y="292" />
            </Array>
          </mxGeometry>
        </mxCell>
        <mxCell id="tmspmf9Bj1s4dJlB-khX-17" value="&lt;span style=&quot;color: rgb(0, 0, 0); font-family: Helvetica; font-size: 11px; font-style: normal; font-variant-ligatures: normal; font-variant-caps: normal; font-weight: 400; letter-spacing: normal; orphans: 2; text-align: center; text-indent: 0px; text-transform: none; widows: 2; word-spacing: 0px; -webkit-text-stroke-width: 0px; white-space: nowrap; background-color: rgb(255, 255, 255); text-decoration-thickness: initial; text-decoration-style: initial; text-decoration-color: initial; display: inline !important; float: none;&quot;&gt;Replication and&lt;/span&gt;&lt;br style=&quot;forced-color-adjust: none; color: rgb(0, 0, 0); font-family: Helvetica; font-size: 11px; font-style: normal; font-variant-ligatures: normal; font-variant-caps: normal; font-weight: 400; letter-spacing: normal; orphans: 2; text-align: center; text-indent: 0px; text-transform: none; widows: 2; word-spacing: 0px; -webkit-text-stroke-width: 0px; white-space: nowrap; text-decoration-thickness: initial; text-decoration-style: initial; text-decoration-color: initial;&quot;&gt;&lt;span style=&quot;color: rgb(0, 0, 0); font-family: Helvetica; font-size: 11px; font-style: normal; font-variant-ligatures: normal; font-variant-caps: normal; font-weight: 400; letter-spacing: normal; orphans: 2; text-align: center; text-indent: 0px; text-transform: none; widows: 2; word-spacing: 0px; -webkit-text-stroke-width: 0px; white-space: nowrap; background-color: rgb(255, 255, 255); text-decoration-thickness: initial; text-decoration-style: initial; text-decoration-color: initial; display: inline !important; float: none;&quot;&gt;Write Forwarding&lt;/span&gt;" style="edgeStyle=orthogonalEdgeStyle;rounded=0;orthogonalLoop=1;jettySize=auto;html=1;startArrow=classic;startFill=1;" edge="1" parent="1" source="tmspmf9Bj1s4dJlB-khX-15" target="tmspmf9Bj1s4dJlB-khX-1">
          <mxGeometry relative="1" as="geometry">
            <Array as="points">
              <mxPoint x="705" y="470" />
              <mxPoint x="500" y="470" />
              <mxPoint x="500" y="292" />
            </Array>
          </mxGeometry>
        </mxCell>
      </root>
    </mxGraphModel>
  </diagram>
</mxfile>
